<svg width="254" height="58" viewBox="0 0 254 58" fill="none" xmlns="http://www.w3.org/2000/svg">
<line x1="2.51465" y1="12.79" x2="254" y2="12.79" stroke="#D9DFE4" stroke-width="3"/>
<path d="M15.0889 0.5C21.7559 0.5 27.1629 5.9198 27.1631 12.6084C27.1631 19.2971 21.756 24.7178 15.0889 24.7178C8.42175 24.7178 3.01465 19.2971 3.01465 12.6084C3.01481 5.91981 8.42184 0.500021 15.0889 0.5Z" fill="#D9DFE4" stroke="#D9DFE4"/>
<path d="M17.2276 6.34015V16.522H15.0749V8.38348H15.0153L12.6836 9.84513V7.93604L15.2042 6.34015H17.2276Z" fill="white"/>
<path d="M92.2109 0.5C98.878 0.5 104.285 5.9198 104.285 12.6084C104.285 19.2971 98.8781 24.7178 92.2109 24.7178C85.5438 24.7178 80.1367 19.2971 80.1367 12.6084C80.1369 5.91981 85.5439 0.500021 92.2109 0.5Z" fill="#D9DFE4" stroke="#D9DFE4"/>
<path d="M89.0977 16.522V14.9708L92.722 11.615C93.0303 11.3167 93.2888 11.0483 93.4976 10.8096C93.7097 10.571 93.8705 10.3373 93.9798 10.1086C94.0892 9.87661 94.1439 9.62638 94.1439 9.35791C94.1439 9.05961 94.076 8.80275 93.9401 8.58731C93.8042 8.36856 93.6186 8.20119 93.3833 8.08518C93.1479 7.96586 92.8811 7.90621 92.5828 7.90621C92.2713 7.90621 91.9995 7.96918 91.7675 8.09513C91.5355 8.22107 91.3565 8.40171 91.2306 8.63703C91.1046 8.87235 91.0416 9.15242 91.0416 9.47723H88.9983C88.9983 8.81103 89.1491 8.23267 89.4507 7.74214C89.7523 7.25161 90.1749 6.87211 90.7185 6.60365C91.262 6.33518 91.8885 6.20095 92.5977 6.20095C93.3269 6.20095 93.9616 6.33021 94.5019 6.58873C95.0454 6.84394 95.468 7.19858 95.7696 7.65265C96.0712 8.10673 96.222 8.62709 96.222 9.21373C96.222 9.5982 96.1458 9.9777 95.9933 10.3522C95.8442 10.7268 95.5774 11.1427 95.1929 11.6001C94.8084 12.0542 94.2665 12.5994 93.5672 13.2358L92.0807 14.6924V14.762H96.3563V16.522H89.0977Z" fill="white"/>
<path d="M169.333 0.5C176.001 0.5 181.408 5.9198 181.408 12.6084C181.408 19.2971 176.001 24.7178 169.333 24.7178C162.666 24.7178 157.259 19.2971 157.259 12.6084C157.259 5.91981 162.666 0.500021 169.333 0.5Z" fill="#D9DFE4" stroke="#D9DFE4"/>
<path d="M168.44 16.6612C167.697 16.6612 167.036 16.5336 166.456 16.2784C165.879 16.0198 165.424 15.6652 165.089 15.2144C164.758 14.7604 164.587 14.2367 164.577 13.6434H166.745C166.758 13.892 166.839 14.1108 166.988 14.2997C167.141 14.4853 167.343 14.6295 167.595 14.7322C167.847 14.8349 168.13 14.8863 168.445 14.8863C168.773 14.8863 169.063 14.8283 169.315 14.7123C169.567 14.5963 169.764 14.4356 169.906 14.2301C170.049 14.0246 170.12 13.7876 170.12 13.5191C170.12 13.2474 170.044 13.0071 169.892 12.7983C169.742 12.5861 169.527 12.4204 169.245 12.3011C168.967 12.1818 168.635 12.1221 168.251 12.1221H167.301V10.5411H168.251C168.576 10.5411 168.862 10.4848 169.111 10.3721C169.363 10.2594 169.558 10.1036 169.698 9.90479C169.837 9.70261 169.906 9.46729 169.906 9.19882C169.906 8.94361 169.845 8.71989 169.723 8.52765C169.603 8.33211 169.434 8.17964 169.215 8.07027C169 7.96089 168.748 7.90621 168.46 7.90621C168.168 7.90621 167.901 7.95924 167.659 8.0653C167.417 8.16804 167.223 8.31553 167.078 8.50777C166.932 8.7 166.854 8.92538 166.844 9.1839H164.781C164.791 8.59726 164.958 8.08021 165.283 7.63277C165.608 7.18532 166.045 6.83566 166.595 6.58376C167.149 6.32855 167.774 6.20095 168.47 6.20095C169.172 6.20095 169.787 6.32855 170.314 6.58376C170.841 6.83897 171.25 7.18367 171.542 7.61785C171.837 8.04872 171.983 8.53263 171.98 9.06956C171.983 9.63963 171.806 10.1152 171.448 10.4964C171.093 10.8776 170.631 11.1195 170.061 11.2223V11.3018C170.81 11.3979 171.38 11.6581 171.771 12.0823C172.165 12.5033 172.361 13.0303 172.357 13.6633C172.361 14.2433 172.193 14.7587 171.855 15.2095C171.521 15.6602 171.058 16.0149 170.468 16.2734C169.878 16.5319 169.202 16.6612 168.44 16.6612Z" fill="white"/>
<path d="M241.426 0.5C248.093 0.5 253.5 5.9198 253.5 12.6084C253.5 19.2971 248.093 24.7178 241.426 24.7178C234.759 24.7178 229.352 19.2971 229.352 12.6084C229.352 5.91981 234.759 0.500021 241.426 0.5Z" fill="#D9DFE4" stroke="#D9DFE4"/>
<path d="M236.485 14.7322V13.0369L240.735 6.34015H242.197V8.68674H241.332L238.652 12.9275V13.0071H244.693V14.7322H236.485ZM241.372 16.522V14.2152L241.411 13.4644V6.34015H243.43V16.522H241.372Z" fill="white"/>
<path d="M5.01079 37.1197C4.98522 36.8619 4.87549 36.6616 4.6816 36.5189C4.4877 36.3761 4.22457 36.3047 3.89218 36.3047C3.66633 36.3047 3.47563 36.3367 3.32009 36.4006C3.16455 36.4624 3.04523 36.5487 2.96214 36.6595C2.88117 36.7703 2.84069 36.896 2.84069 37.0366C2.83643 37.1538 2.86093 37.2561 2.9142 37.3434C2.96959 37.4308 3.04523 37.5064 3.14111 37.5704C3.23699 37.6321 3.34779 37.6865 3.4735 37.7334C3.59921 37.7781 3.73344 37.8165 3.8762 37.8484L4.46427 37.989C4.74978 38.053 5.01185 38.1382 5.25049 38.2447C5.48912 38.3513 5.6958 38.4823 5.87052 38.6378C6.04523 38.7934 6.18053 38.9766 6.27641 39.1875C6.37442 39.3985 6.42449 39.6403 6.42662 39.913C6.42449 40.3136 6.32222 40.6609 6.11981 40.9549C5.91952 41.2468 5.62975 41.4738 5.25049 41.6357C4.87336 41.7955 4.41846 41.8754 3.88579 41.8754C3.35738 41.8754 2.89715 41.7944 2.5051 41.6325C2.11519 41.4706 1.8105 41.2309 1.59104 40.9134C1.37371 40.5938 1.25972 40.1986 1.24907 39.7277H2.5882C2.60312 39.9471 2.66597 40.1304 2.77677 40.2774C2.88969 40.4223 3.03991 40.532 3.22741 40.6066C3.41704 40.679 3.63117 40.7152 3.86981 40.7152C4.10418 40.7152 4.30766 40.6812 4.48025 40.613C4.65496 40.5448 4.79026 40.45 4.88614 40.3285C4.98202 40.2071 5.02996 40.0675 5.02996 39.9098C5.02996 39.7628 4.98628 39.6392 4.89893 39.5391C4.8137 39.439 4.68799 39.3537 4.5218 39.2834C4.35773 39.2131 4.15638 39.1492 3.91775 39.0917L3.20503 38.9127C2.65319 38.7785 2.21746 38.5686 1.89786 38.2831C1.57826 37.9976 1.41952 37.613 1.42165 37.1293C1.41952 36.733 1.52499 36.3868 1.73806 36.0906C1.95326 35.7944 2.24836 35.5633 2.62336 35.3971C2.99836 35.2309 3.42449 35.1478 3.90177 35.1478C4.38756 35.1478 4.81157 35.2309 5.17378 35.3971C5.53813 35.5633 5.82151 35.7944 6.02393 36.0906C6.22634 36.3868 6.33074 36.7298 6.33714 37.1197H5.01079ZM7.10818 36.3782V35.2373H12.4839V36.3782H10.48V41.7827H9.11208V36.3782H7.10818ZM13.3692 41.7827V35.2373H17.7797V36.3782H14.7531V37.9379H17.5528V39.0789H14.7531V40.6417H17.7925V41.7827H13.3692ZM18.8799 41.7827V35.2373H21.4623C21.9588 35.2373 22.3817 35.3321 22.7311 35.5217C23.0806 35.7092 23.3469 35.9702 23.5301 36.3047C23.7155 36.6371 23.8082 37.0206 23.8082 37.4553C23.8082 37.89 23.7144 38.2735 23.5269 38.6059C23.3394 38.9383 23.0678 39.1971 22.712 39.3825C22.3583 39.5679 21.93 39.6606 21.4272 39.6606H19.7812V38.5515H21.2034C21.4698 38.5515 21.6892 38.5057 21.8618 38.4141C22.0365 38.3204 22.1665 38.1915 22.2517 38.0274C22.3391 37.8612 22.3828 37.6705 22.3828 37.4553C22.3828 37.238 22.3391 37.0483 22.2517 36.8864C22.1665 36.7223 22.0365 36.5956 21.8618 36.5061C21.6871 36.4145 21.4655 36.3687 21.197 36.3687H20.2638V41.7827H18.8799ZM13.6912 46.2373V52.7827H12.3073V47.5508H12.269L10.77 48.4905V47.2632L12.3904 46.2373H13.6912Z" fill="#D9DFE4"/>
<path d="M82.1329 37.1197C82.1073 36.8619 81.9976 36.6616 81.8037 36.5189C81.6098 36.3761 81.3466 36.3047 81.0142 36.3047C80.7884 36.3047 80.5977 36.3367 80.4422 36.4006C80.2866 36.4624 80.1673 36.5487 80.0842 36.6595C80.0032 36.7703 79.9628 36.896 79.9628 37.0366C79.9585 37.1538 79.983 37.2561 80.0363 37.3434C80.0917 37.4308 80.1673 37.5064 80.2632 37.5704C80.3591 37.6321 80.4699 37.6865 80.5956 37.7334C80.7213 37.7781 80.8555 37.8165 80.9983 37.8484L81.5863 37.989C81.8718 38.053 82.1339 38.1382 82.3726 38.2447C82.6112 38.3513 82.8179 38.4823 82.9926 38.6378C83.1673 38.7934 83.3026 38.9766 83.3985 39.1875C83.4965 39.3985 83.5466 39.6403 83.5487 39.913C83.5466 40.3136 83.4443 40.6609 83.2419 40.9549C83.0416 41.2468 82.7518 41.4738 82.3726 41.6357C81.9954 41.7955 81.5405 41.8754 81.0079 41.8754C80.4794 41.8754 80.0192 41.7944 79.6272 41.6325C79.2373 41.4706 78.9326 41.2309 78.7131 40.9134C78.4958 40.5938 78.3818 40.1986 78.3711 39.7277H79.7103C79.7252 39.9471 79.788 40.1304 79.8988 40.2774C80.0118 40.4223 80.162 40.532 80.3495 40.6066C80.5391 40.679 80.7532 40.7152 80.9919 40.7152C81.2263 40.7152 81.4297 40.6812 81.6023 40.613C81.777 40.5448 81.9123 40.45 82.0082 40.3285C82.1041 40.2071 82.152 40.0675 82.152 39.9098C82.152 39.7628 82.1084 39.6392 82.021 39.5391C81.9358 39.439 81.8101 39.3537 81.6439 39.2834C81.4798 39.2131 81.2785 39.1492 81.0398 39.0917L80.3271 38.9127C79.7753 38.7785 79.3395 38.5686 79.0199 38.2831C78.7003 37.9976 78.5416 37.613 78.5437 37.1293C78.5416 36.733 78.6471 36.3868 78.8601 36.0906C79.0753 35.7944 79.3704 35.5633 79.7454 35.3971C80.1204 35.2309 80.5466 35.1478 81.0238 35.1478C81.5096 35.1478 81.9336 35.2309 82.2959 35.3971C82.6602 35.5633 82.9436 35.7944 83.146 36.0906C83.3484 36.3868 83.4528 36.7298 83.4592 37.1197H82.1329ZM84.2302 36.3782V35.2373H89.606V36.3782H87.6021V41.7827H86.2342V36.3782H84.2302ZM90.4913 41.7827V35.2373H94.9018V36.3782H91.8751V37.9379H94.6748V39.0789H91.8751V40.6417H94.9146V41.7827H90.4913ZM96.002 41.7827V35.2373H98.5844C99.0808 35.2373 99.5038 35.3321 99.8532 35.5217C100.203 35.7092 100.469 35.9702 100.652 36.3047C100.838 36.6371 100.93 37.0206 100.93 37.4553C100.93 37.89 100.837 38.2735 100.649 38.6059C100.462 38.9383 100.19 39.1971 99.834 39.3825C99.4803 39.5679 99.0521 39.6606 98.5492 39.6606H96.9033V38.5515H98.3255C98.5918 38.5515 98.8113 38.5057 98.9839 38.4141C99.1586 38.3204 99.2886 38.1915 99.3738 38.0274C99.4612 37.8612 99.5048 37.6705 99.5048 37.4553C99.5048 37.238 99.4612 37.0483 99.3738 36.8864C99.2886 36.7223 99.1586 36.5956 98.9839 36.5061C98.8092 36.4145 98.5876 36.3687 98.3191 36.3687H97.3859V41.7827H96.002ZM87.3328 52.7827V51.7856L89.6627 49.6282C89.8608 49.4365 90.027 49.2639 90.1613 49.1105C90.2976 48.9571 90.401 48.8069 90.4713 48.6598C90.5416 48.5107 90.5767 48.3498 90.5767 48.1772C90.5767 47.9855 90.5331 47.8204 90.4457 47.6819C90.3584 47.5412 90.239 47.4336 90.0878 47.3591C89.9365 47.2824 89.765 47.244 89.5732 47.244C89.3729 47.244 89.1982 47.2845 89.0491 47.3655C88.8999 47.4464 88.7848 47.5625 88.7039 47.7138C88.6229 47.8651 88.5824 48.0451 88.5824 48.254H87.2689C87.2689 47.8257 87.3658 47.4539 87.5597 47.1385C87.7536 46.8232 88.0253 46.5792 88.3747 46.4066C88.7241 46.2341 89.1268 46.1478 89.5828 46.1478C90.0515 46.1478 90.4596 46.2309 90.8069 46.3971C91.1563 46.5611 91.428 46.7891 91.6218 47.081C91.8157 47.3729 91.9127 47.7074 91.9127 48.0846C91.9127 48.3317 91.8637 48.5757 91.7657 48.8165C91.6698 49.0572 91.4983 49.3246 91.2511 49.6187C91.004 49.9106 90.6556 50.2611 90.206 50.6701L89.2504 51.6066V51.6513H91.999V52.7827H87.3328Z" fill="#D9DFE4"/>
<path d="M160.932 37.1197C160.906 36.8619 160.796 36.6616 160.602 36.5189C160.409 36.3761 160.145 36.3047 159.813 36.3047C159.587 36.3047 159.397 36.3367 159.241 36.4006C159.085 36.4624 158.966 36.5487 158.883 36.6595C158.802 36.7703 158.762 36.896 158.762 37.0366C158.757 37.1538 158.782 37.2561 158.835 37.3434C158.89 37.4308 158.966 37.5064 159.062 37.5704C159.158 37.6321 159.269 37.6865 159.394 37.7334C159.52 37.7781 159.654 37.8165 159.797 37.8484L160.385 37.989C160.671 38.053 160.933 38.1382 161.171 38.2447C161.41 38.3513 161.617 38.4823 161.791 38.6378C161.966 38.7934 162.101 38.9766 162.197 39.1875C162.295 39.3985 162.345 39.6403 162.348 39.913C162.345 40.3136 162.243 40.6609 162.041 40.9549C161.84 41.2468 161.551 41.4738 161.171 41.6357C160.794 41.7955 160.339 41.8754 159.807 41.8754C159.278 41.8754 158.818 41.7944 158.426 41.6325C158.036 41.4706 157.731 41.2309 157.512 40.9134C157.295 40.5938 157.181 40.1986 157.17 39.7277H158.509C158.524 39.9471 158.587 40.1304 158.698 40.2774C158.811 40.4223 158.961 40.532 159.148 40.6066C159.338 40.679 159.552 40.7152 159.791 40.7152C160.025 40.7152 160.229 40.6812 160.401 40.613C160.576 40.5448 160.711 40.45 160.807 40.3285C160.903 40.2071 160.951 40.0675 160.951 39.9098C160.951 39.7628 160.907 39.6392 160.82 39.5391C160.735 39.439 160.609 39.3537 160.443 39.2834C160.279 39.2131 160.077 39.1492 159.839 39.0917L159.126 38.9127C158.574 38.7785 158.138 38.5686 157.819 38.2831C157.499 37.9976 157.34 37.613 157.343 37.1293C157.34 36.733 157.446 36.3868 157.659 36.0906C157.874 35.7944 158.169 35.5633 158.544 35.3971C158.919 35.2309 159.345 35.1478 159.823 35.1478C160.308 35.1478 160.732 35.2309 161.095 35.3971C161.459 35.5633 161.742 35.7944 161.945 36.0906C162.147 36.3868 162.252 36.7298 162.258 37.1197H160.932ZM163.029 36.3782V35.2373H168.405V36.3782H166.401V41.7827H165.033V36.3782H163.029ZM169.29 41.7827V35.2373H173.701V36.3782H170.674V37.9379H173.474V39.0789H170.674V40.6417H173.713V41.7827H169.29ZM174.801 41.7827V35.2373H177.383C177.88 35.2373 178.303 35.3321 178.652 35.5217C179.001 35.7092 179.268 35.9702 179.451 36.3047C179.636 36.6371 179.729 37.0206 179.729 37.4553C179.729 37.89 179.635 38.2735 179.448 38.6059C179.26 38.9383 178.989 39.1971 178.633 39.3825C178.279 39.5679 177.851 39.6606 177.348 39.6606H175.702V38.5515H177.124C177.391 38.5515 177.61 38.5057 177.783 38.4141C177.957 38.3204 178.087 38.1915 178.173 38.0274C178.26 37.8612 178.304 37.6705 178.304 37.4553C178.304 37.238 178.26 37.0483 178.173 36.8864C178.087 36.7223 177.957 36.5956 177.783 36.5061C177.608 36.4145 177.386 36.3687 177.118 36.3687H176.185V41.7827H174.801ZM168.419 52.8722C167.942 52.8722 167.517 52.7902 167.144 52.6261C166.773 52.4599 166.48 52.2319 166.265 51.9422C166.052 51.6503 165.942 51.3136 165.936 50.9322H167.329C167.338 51.092 167.39 51.2326 167.486 51.3541C167.584 51.4734 167.714 51.5661 167.876 51.6321C168.038 51.6982 168.22 51.7312 168.422 51.7312C168.633 51.7312 168.82 51.6939 168.982 51.6194C169.144 51.5448 169.27 51.4415 169.362 51.3093C169.454 51.1772 169.499 51.0249 169.499 50.8523C169.499 50.6776 169.45 50.5231 169.352 50.3889C169.257 50.2525 169.118 50.146 168.937 50.0693C168.758 49.9926 168.545 49.9542 168.298 49.9542H167.687V48.9379H168.298C168.507 48.9379 168.691 48.9017 168.851 48.8292C169.013 48.7568 169.138 48.6566 169.228 48.5288C169.317 48.3988 169.362 48.2476 169.362 48.075C169.362 47.9109 169.323 47.7671 169.244 47.6435C169.167 47.5178 169.058 47.4198 168.918 47.3495C168.779 47.2792 168.617 47.244 168.432 47.244C168.244 47.244 168.073 47.2781 167.917 47.3463C167.762 47.4123 167.637 47.5071 167.543 47.6307C167.45 47.7543 167.4 47.8992 167.393 48.0654H166.067C166.073 47.6883 166.181 47.3559 166.39 47.0682C166.598 46.7806 166.88 46.5558 167.233 46.3939C167.589 46.2298 167.991 46.1478 168.438 46.1478C168.89 46.1478 169.285 46.2298 169.624 46.3939C169.963 46.5579 170.226 46.7795 170.413 47.0586C170.603 47.3356 170.697 47.6467 170.695 47.9919C170.697 48.3584 170.583 48.6641 170.353 48.9091C170.125 49.1542 169.828 49.3097 169.461 49.3758V49.4269C169.943 49.4887 170.309 49.6559 170.561 49.9287C170.814 50.1993 170.94 50.538 170.938 50.945C170.94 51.3179 170.832 51.6492 170.615 51.939C170.4 52.2287 170.102 52.4567 169.723 52.6229C169.344 52.7891 168.909 52.8722 168.419 52.8722Z" fill="#D9DFE4"/>
<path d="M231.348 37.1197C231.322 36.8619 231.212 36.6616 231.019 36.5189C230.825 36.3761 230.561 36.3047 230.229 36.3047C230.003 36.3047 229.813 36.3367 229.657 36.4006C229.501 36.4624 229.382 36.5487 229.299 36.6595C229.218 36.7703 229.178 36.896 229.178 37.0366C229.173 37.1538 229.198 37.2561 229.251 37.3434C229.307 37.4308 229.382 37.5064 229.478 37.5704C229.574 37.6321 229.685 37.6865 229.81 37.7334C229.936 37.7781 230.07 37.8165 230.213 37.8484L230.801 37.989C231.087 38.053 231.349 38.1382 231.587 38.2447C231.826 38.3513 232.033 38.4823 232.207 38.6378C232.382 38.7934 232.517 38.9766 232.613 39.1875C232.711 39.3985 232.761 39.6403 232.764 39.913C232.761 40.3136 232.659 40.6609 232.457 40.9549C232.256 41.2468 231.967 41.4738 231.587 41.6357C231.21 41.7955 230.755 41.8754 230.223 41.8754C229.694 41.8754 229.234 41.7944 228.842 41.6325C228.452 41.4706 228.147 41.2309 227.928 40.9134C227.711 40.5938 227.597 40.1986 227.586 39.7277H228.925C228.94 39.9471 229.003 40.1304 229.114 40.2774C229.227 40.4223 229.377 40.532 229.564 40.6066C229.754 40.679 229.968 40.7152 230.207 40.7152C230.441 40.7152 230.645 40.6812 230.817 40.613C230.992 40.5448 231.127 40.45 231.223 40.3285C231.319 40.2071 231.367 40.0675 231.367 39.9098C231.367 39.7628 231.323 39.6392 231.236 39.5391C231.151 39.439 231.025 39.3537 230.859 39.2834C230.695 39.2131 230.493 39.1492 230.255 39.0917L229.542 38.9127C228.99 38.7785 228.554 38.5686 228.235 38.2831C227.915 37.9976 227.756 37.613 227.759 37.1293C227.756 36.733 227.862 36.3868 228.075 36.0906C228.29 35.7944 228.585 35.5633 228.96 35.3971C229.335 35.2309 229.761 35.1478 230.239 35.1478C230.724 35.1478 231.148 35.2309 231.511 35.3971C231.875 35.5633 232.158 35.7944 232.361 36.0906C232.563 36.3868 232.668 36.7298 232.674 37.1197H231.348ZM233.445 36.3782V35.2373H238.821V36.3782H236.817V41.7827H235.449V36.3782H233.445ZM239.706 41.7827V35.2373H244.117V36.3782H241.09V37.9379H243.89V39.0789H241.09V40.6417H244.129V41.7827H239.706ZM245.217 41.7827V35.2373H247.799C248.296 35.2373 248.719 35.3321 249.068 35.5217C249.417 35.7092 249.684 35.9702 249.867 36.3047C250.052 36.6371 250.145 37.0206 250.145 37.4553C250.145 37.89 250.051 38.2735 249.864 38.6059C249.676 38.9383 249.405 39.1971 249.049 39.3825C248.695 39.5679 248.267 39.6606 247.764 39.6606H246.118V38.5515H247.54C247.807 38.5515 248.026 38.5057 248.199 38.4141C248.373 38.3204 248.503 38.1915 248.589 38.0274C248.676 37.8612 248.72 37.6705 248.72 37.4553C248.72 37.238 248.676 37.0483 248.589 36.8864C248.503 36.7223 248.373 36.5956 248.199 36.5061C248.024 36.4145 247.802 36.3687 247.534 36.3687H246.601V41.7827H245.217ZM236.233 51.6321V50.5423L238.966 46.2373H239.905V47.7458H239.349L237.627 50.472V50.5231H241.51V51.6321H236.233ZM239.375 52.7827V51.2998L239.4 50.8172V46.2373H240.698V52.7827H239.375Z" fill="#D9DFE4"/>
</svg>
